<?xml version="1.0" encoding="UTF-8"?>
<svg viewBox="0 0 665.5509 160.7942" xmlns="http://www.w3.org/2000/svg" xmlns:xlink="http://www.w3.org/1999/xlink">
 <defs>
  <linearGradient id="a">
   <stop stop-color="#fffcff" stop-opacity=".93377" offset="0"/>
   <stop stop-color="#fffcff" stop-opacity="0" offset="1"/>
  </linearGradient>
  <linearGradient id="d" x1="63.551" x2="65.248" y1="65.368" y2="89.915" gradientUnits="userSpaceOnUse">
   <stop stop-color="#fffcff" offset="0"/>
   <stop stop-color="#fffcff" stop-opacity="0" offset="1"/>
  </linearGradient>
  <linearGradient id="e" x1="-277.72" x2="-275.54" y1="283.03" y2="309.33" gradientUnits="userSpaceOnUse" xlink:href="#a"/>
  <linearGradient id="f" x1="-72.86" x2="-72.86" y1="475.94" y2="487.08" gradientUnits="userSpaceOnUse" xlink:href="#a"/>
  <linearGradient id="g" x1="-95.61" x2="-95.61" y1="475.94" y2="487.08" gradientUnits="userSpaceOnUse" xlink:href="#a"/>
  <linearGradient id="h" x1="-84.61" x2="-84.61" y1="459.94" y2="471.08" gradientUnits="userSpaceOnUse" xlink:href="#a"/>
  <linearGradient id="c" x1="73.141" x2="99.216" gradientUnits="userSpaceOnUse" xlink:href="#a"/>
  <linearGradient id="b" x1="151.17" x2="181.23" gradientUnits="userSpaceOnUse" xlink:href="#a"/>
 </defs>
 <g transform="matrix(3.8796 0 0 3.8796 1146.6 -1092.8)">
  <path d="m-295.5 295.84c0.01545 10.829 13.59 18.717 17.564 27.291 4.0094-8.5531 17.625-16.371 17.696-27.2 0.03091-5.1067-3.9233-9.2623-8.7915-9.2728s-8.8235 4.1154-8.8379 9.232c0.01435-5.1166-3.9238-9.2623-8.7926-9.2722-4.8688-0.02041-8.8224 4.1154-8.8379 9.222z" fill="#e61408"/>
  <path d="m-286.61 286.61c-4.9207-0.02063-8.9241 4.1785-8.9397 9.3396 0.00342 2.3942 0.64377 4.6211 1.7137 6.7691 0 0 7.1842 6.8092 16.094 0 11.881-9.0798 16.094 0 16.094 0 1.0568-2.1179 1.7268-4.3197 1.7423-6.6834 0.03124-5.1612-3.991-9.3576-8.9112-9.3682s-8.8967 4.1398-8.9112 9.311c0.0145-5.1712-3.9619-9.3581-8.8826-9.3682z" fill="url(#e)"/>
 </g>
 <g transform="matrix(3.8796 0 0 3.8796 -232.06 -239.97)">
  <path d="m147.04 83.27c4.5006 1.2334 8.7625 3.5852 12.296 7.1188 3.7044 3.7044 6.1034 8.1689 7.2806 12.911 1.1772-4.7421 3.5439-9.2389 7.2482-12.943 3.5093-3.5093 7.7328-5.8461 12.199-7.0865-4.5731-1.2152-8.8718-3.565-12.458-7.1512-3.424-3.424-5.7586-7.5296-7.0218-11.875-1.2634 4.3442-3.5342 8.4527-6.957 11.875-3.6098 3.6097-7.9806 5.9432-12.587 7.1512z" fill="#e61408"/>
  <path d="m166.45 63.365s-0.04657 0.14842-0.03125 0.375c-0.04993 1.1876-0.76324 5.3629-7.9062 12.219-3.1659 3.0384-9.6598 6.2563-11.44 7.3491 0 0 5.6994 2.1006 18.95-2.649 7.7107-2.7638 15.208 1.2374 15.208 1.2374-1.9333-1.168-4.4112-3.1586-7.4688-6.5625-5.9409-6.6138-7.1122-10.045-7.3125-11.344v-0.4375c-3e-5 -0.13656 0-0.1875 0-0.1875z" fill="url(#b)"/>
 </g>
 <path transform="matrix(3.8796 0 0 3.8796 772 -1298.1)" d="m-45 334.69c-3.9783 7.1643-17.524 13.729-17.562 22.781-0.0177 4.2749 3.929 7.75 8.7812 7.75 2.9975 0 5.6336-1.3247 7.2188-3.3438-0.7214 5.4902-2.7829 14.151-8.7188 14.156h20.5c-4.3494 0.00367-6.6438-4.645-7.8438-9.2812-0.45703-1.7654-0.74173-3.5214-0.9375-5.0312 1.5698 2.108 4.2677 3.5 7.3438 3.5 4.8523 0 8.7812-3.4751 8.7812-7.75-0.03784-9.0527-13.583-15.617-17.562-22.781z"/>
 <g transform="matrix(4.8495 0 0 4.8495 289.52 -317)" fill="url(#c)">
  <path d="m63.564 65.368c-2.5942 4.6717-10.282 9.0281-13.05 14.4 0 0 1.0048 2.8519 12.189-2.5456 10.568-5.1003 13.886 2.5456 13.886 2.5456-2.7674-5.3719-10.43-9.7283-13.025-14.4z" fill="url(#d)"/>
 </g>
 <g transform="matrix(3.8695 0 0 3.8695 561.93 -1778.9)">
  <path d="m-84.438 459.94c-4.8639 0-8.7812 3.8145-8.7812 8.5312 0 2.4761 1.0847 4.693 2.8125 6.25l0.03125 0.03125c1.8253 1.8373 2.9662 4.0229 3.6875 6.0312-0.96416-0.57534-1.8706-1.2767-2.7188-2.125-1.595-1.5431-3.7862-2.5-6.2188-2.5-4.8645 0-8.8125 3.8139-8.8125 8.5312s3.948 8.5625 8.8125 8.5625c2.7544 0 5.1966-1.2342 6.8125-3.1562 1.0442-0.93255 2.1785-1.7019 3.3125-2.2812-0.21631 2.8579-1.5361 13.462-9.0625 13.469h20.469c-4.3494 0.00245-6.6426-3.5574-7.8438-7.0938-0.84807-2.5002-1.1441-4.9399-1.25-6.1875 1.276 0.67377 2.5534 1.5222 3.6875 2.6562v-0.1875c1.6002 1.6691 3.8698 2.7188 6.4062 2.7188 4.8645 0 8.8125-3.8433 8.8125-8.5625s-3.948-8.5312-8.8125-8.5312c-2.5308 0-4.8066 1.0327-6.4062 2.6875v-0.09375c-0.77583 0.77593-1.623 1.4231-2.5 1.9688 0.70705-2.0007 1.7974-4.1726 3.5625-5.9375 1.7258-1.5563 2.8125-3.782 2.8125-6.25 0-4.7168-3.9468-8.5312-8.8125-8.5312z"/>
  <path d="m-84.625 459.94c-4.8639 1e-5 -8.7812 3.8145-8.7812 8.5312-0.02969 5.5027 1.9849 1.1931 9.1259-2.6544 10.116-4.7025 7.986 5.8591 8.4678 2.6544 0-4.7168-3.9468-8.5312-8.8125-8.5312z" fill="url(#h)"/>
  <path d="m-95.625 475.94c-4.8639 1e-5 -8.7812 3.8145-8.7812 8.5312-0.02969 5.5027 1.9849 1.1931 9.1259-2.6544 10.116-4.7025 7.986 5.8591 8.4678 2.6544 0-4.7168-3.9468-8.5312-8.8125-8.5312z" fill="url(#g)"/>
  <path d="m-72.875 475.94c-4.8639 1e-5 -8.7812 3.8145-8.7812 8.5312-0.02969 5.5027 1.9849 1.1931 9.1259-2.6544 10.116-4.7025 7.986 5.8591 8.4678 2.6544 0-4.7168-3.9468-8.5312-8.8125-8.5312z" fill="url(#f)"/>
 </g>
</svg>
